<svg xmlns="http://www.w3.org/2000/svg" viewBox="0 0 512.001 512.001" style="max-width:100%" height="100%"><path d="M379.129 71.338c-.021-.154-.063-.302-.091-.454-.051-.28-.097-.562-.171-.835-.048-.175-.117-.342-.174-.514-.08-.242-.153-.486-.25-.72-.074-.176-.168-.342-.251-.513-.107-.219-.206-.441-.328-.651-.097-.167-.212-.322-.319-.483-.133-.201-.26-.405-.407-.597-.119-.154-.254-.294-.381-.442-.158-.182-.311-.368-.482-.538-.139-.138-.292-.262-.439-.392-.182-.161-.359-.325-.554-.473-.157-.12-.327-.224-.492-.336-.165-.111-.321-.235-.494-.337-.042-.024-.086-.04-.128-.064-.037-.021-.07-.048-.108-.069L260.845 1.251a10 10 0 0 0-9.686 0L137.943 63.919c-.038.021-.07.048-.108.07-.042.024-.086.04-.128.064-.174.103-.33.226-.496.338-.164.11-.333.214-.489.333-.196.15-.376.316-.56.479-.145.129-.296.25-.432.387-.174.174-.33.362-.49.547-.125.144-.257.282-.373.433-.15.195-.279.403-.414.608-.104.158-.217.309-.312.472-.124.214-.226.439-.334.662-.082.168-.174.33-.246.503-.099.237-.173.484-.254.729-.056.169-.124.332-.171.504-.075.275-.121.558-.172.839-.027.151-.069.298-.09.451a9.96 9.96 0 0 0-.09 1.33v134.79a10 10 0 0 0 5.157 8.749l113.216 62.668c.178.099.365.172.547.259.173.083.342.173.518.245.243.099.492.175.74.254.164.052.324.115.49.159.281.074.566.122.85.171.139.024.275.061.415.079.426.055.854.085 1.282.085s.857-.03 1.282-.085c.138-.018.274-.055.411-.078.29-.05.576-.098.858-.172.165-.043.324-.106.487-.158.249-.08.499-.155.743-.255.176-.072.345-.163.517-.245.183-.087.37-.16.548-.259l113.217-62.668a9.998 9.998 0 0 0 5.157-8.749V72.668c0-.449-.031-.892-.09-1.33zM246.002 253.161l-16.058-8.888v-53.438c0-5.523-4.477-10-10-10s-10 4.477-10 10v42.367l-57.159-31.639V89.633h.001l93.216 51.597v111.931zm10-129.255l-92.567-51.238 92.567-51.238 92.567 51.238-92.567 51.238zm103.217 77.658l-93.217 51.597V141.23l16.058-8.888v44.039c0 5.522 4.478 10 10 10 5.523 0 10-4.478 10-10v-55.109l57.159-31.639v111.931z" style="" fill="currentColor"></path><path d="M229.752 151.06a10.098 10.098 0 0 0-1.49-3.599c-.37-.54-.78-1.061-1.24-1.521-.47-.46-.98-.88-1.53-1.239a10.15 10.15 0 0 0-1.72-.921 10.58 10.58 0 0 0-1.87-.569 9.898 9.898 0 0 0-3.91 0 10.096 10.096 0 0 0-3.6 1.49 9.51 9.51 0 0 0-1.52 1.239 10 10 0 0 0-1.24 1.521 10.098 10.098 0 0 0-1.69 5.549c0 .65.07 1.31.2 1.96.13.639.32 1.26.57 1.87.25.6.56 1.18.92 1.72.36.55.78 1.061 1.24 1.52.46.46.97.88 1.52 1.25a10.096 10.096 0 0 0 3.6 1.489c.64.131 1.3.19 1.95.19.65 0 1.31-.06 1.96-.19.63-.13 1.26-.319 1.87-.569.6-.25 1.18-.561 1.72-.92.55-.37 1.06-.79 1.52-1.25.46-.46.88-.971 1.25-1.52.36-.54.67-1.12.92-1.72.25-.61.44-1.23.57-1.87.13-.65.19-1.309.19-1.96 0-.65-.06-1.31-.19-1.95zM301.862 212.251a10.138 10.138 0 0 0-2.73-5.121c-.46-.46-.97-.88-1.521-1.24a9.834 9.834 0 0 0-1.73-.92c-.6-.25-1.23-.44-1.87-.57-3.25-.659-6.7.41-9.02 2.73-.471.46-.881.97-1.25 1.52a10.096 10.096 0 0 0-1.49 3.6c-.13.64-.19 1.3-.19 1.95 0 2.63 1.07 5.21 2.931 7.069a10.057 10.057 0 0 0 7.069 2.931 9.908 9.908 0 0 0 3.82-.76 9.905 9.905 0 0 0 3.251-2.17 10.072 10.072 0 0 0 2.93-7.069 9.77 9.77 0 0 0-.2-1.95zM511.912 303.212c-.021-.154-.063-.302-.091-.454-.051-.28-.097-.562-.171-.835-.048-.175-.117-.342-.174-.514-.08-.242-.153-.486-.25-.72-.074-.176-.168-.342-.251-.513-.107-.219-.206-.441-.328-.651-.097-.167-.212-.322-.319-.483-.133-.201-.26-.406-.407-.597-.119-.154-.253-.294-.381-.442-.158-.182-.311-.367-.482-.538-.139-.138-.292-.262-.439-.392-.182-.161-.359-.325-.554-.473-.157-.12-.327-.224-.492-.336-.165-.111-.321-.235-.494-.337-.042-.024-.086-.041-.128-.064-.037-.021-.07-.048-.108-.069l-113.217-62.668a10 10 0 0 0-9.686 0l-113.216 62.668c-.038.021-.07.048-.108.07-.042.023-.086.04-.127.064-.173.102-.328.225-.494.337-.165.111-.335.216-.492.336-.194.148-.372.312-.554.473-.147.13-.3.254-.439.392-.171.171-.324.356-.482.538-.128.147-.262.288-.381.442-.147.191-.274.396-.407.597-.106.161-.222.316-.319.483-.122.21-.222.432-.328.651-.083.172-.178.337-.251.513-.098.234-.171.478-.25.72-.057.172-.126.338-.174.514-.074.273-.12.555-.171.835-.028.152-.07.3-.091.454a9.96 9.96 0 0 0-.09 1.33v134.79c0 3.637 1.975 6.987 5.157 8.749l113.216 62.668c.178.099.366.172.549.26.172.082.341.172.517.244.244.1.494.176.743.255.162.052.322.115.486.158.282.074.569.122.855.171.137.024.272.06.41.078.426.055.854.085 1.283.085.429 0 .857-.03 1.283-.085.138-.018.273-.055.411-.078.286-.049.572-.097.854-.171.165-.043.324-.106.487-.158.249-.08.499-.155.743-.255.176-.072.345-.163.517-.245.183-.087.37-.16.548-.259l113.217-62.668a9.998 9.998 0 0 0 5.157-8.749v-134.79a9.487 9.487 0 0 0-.087-1.331zM378.785 485.036l-16.058-8.888V423.79c0-5.522-4.478-10-10-10s-10 4.478-10 10v41.287l-57.158-31.639V321.507l93.216 51.598v111.931zm10-129.256l-92.566-51.238 92.566-51.238 92.567 51.238-92.567 51.238zm103.217 77.658l-93.217 51.598V373.104l93.217-51.597v111.931z" style="" fill="currentColor"></path><path d="M362.532 382.93c-.131-.63-.32-1.26-.57-1.87a10.217 10.217 0 0 0-2.16-3.241c-.47-.46-.98-.88-1.52-1.25a10.072 10.072 0 0 0-3.6-1.489 9.86 9.86 0 0 0-3.91 0c-.64.13-1.27.319-1.87.569-.6.25-1.18.561-1.72.92-.55.37-1.06.79-1.52 1.25-.471.46-.88.971-1.25 1.521-.36.54-.67 1.12-.92 1.72-.25.61-.44 1.24-.57 1.87-.13.65-.2 1.311-.2 1.96a10.145 10.145 0 0 0 1.69 5.55c.37.551.779 1.06 1.25 1.52.46.46.97.88 1.52 1.24a10.043 10.043 0 0 0 3.59 1.489c.65.13 1.3.2 1.96.2.65 0 1.301-.07 1.95-.2a10.072 10.072 0 0 0 3.6-1.489c.539-.36 1.05-.78 1.52-1.24.46-.46.88-.97 1.24-1.52a10.199 10.199 0 0 0 1.49-3.6c.13-.64.189-1.3.189-1.95 0-.649-.06-1.309-.189-1.96zM246.343 303.213c-.018-.154-.06-.301-.088-.452-.051-.282-.097-.565-.172-.839-.047-.172-.115-.336-.171-.504-.081-.245-.155-.492-.254-.73-.072-.173-.164-.335-.246-.503-.108-.223-.21-.448-.334-.662-.095-.163-.208-.315-.312-.472-.135-.205-.264-.413-.414-.608-.116-.151-.248-.289-.373-.433-.16-.185-.316-.373-.49-.547-.137-.136-.288-.258-.432-.386-.184-.163-.363-.329-.56-.479-.156-.119-.325-.223-.489-.333-.166-.112-.322-.236-.496-.338-.041-.024-.086-.041-.127-.064-.037-.021-.07-.048-.108-.069L128.06 233.126a10 10 0 0 0-9.686 0L5.159 295.793c-.038.021-.07.048-.108.069-.042.024-.086.04-.127.064-.174.103-.33.226-.496.338-.164.11-.333.214-.489.333-.196.15-.376.316-.56.479-.145.128-.296.25-.432.386-.174.174-.33.362-.49.547-.125.144-.257.282-.373.433-.15.195-.279.403-.414.608-.104.158-.217.309-.312.472-.124.214-.226.44-.334.662-.082.168-.174.33-.246.503-.099.237-.173.484-.254.73-.056.169-.124.332-.171.504-.075.275-.121.558-.172.839-.027.151-.069.298-.09.451-.058.439-.089.883-.089 1.331v134.79a10 10 0 0 0 5.157 8.749l113.216 62.668c.178.099.365.172.547.259.173.082.342.173.518.245.243.099.492.175.74.254.164.052.324.115.49.159.281.074.566.122.85.171.139.024.275.061.415.079.426.055.854.085 1.282.085a10 10 0 0 0 1.282-.085c.138-.018.274-.055.411-.078.286-.049.572-.097.854-.171.165-.043.324-.106.487-.158.249-.08.499-.155.743-.255.176-.072.345-.163.517-.245.183-.087.37-.16.548-.259l113.217-62.668a10 10 0 0 0 5.157-8.749v-134.79a9.96 9.96 0 0 0-.09-1.33zM113.218 485.036l-93.216-51.598V321.507l93.216 51.598v111.931zm10-129.256l-92.567-51.238 92.567-51.238 92.568 51.238-92.568 51.238zm103.217 77.658l-93.217 51.598V373.104l16.058-8.889v44.039c0 5.522 4.477 10 10 10s10-4.478 10-10v-55.109l57.159-31.639v111.932z" style="" fill="currentColor"></path><path d="M169.082 444.121a10.062 10.062 0 0 0-2.73-5.112c-.47-.47-.98-.88-1.52-1.25a10.098 10.098 0 0 0-3.6-1.49 9.898 9.898 0 0 0-3.91 0 10.098 10.098 0 0 0-3.6 1.49c-.55.37-1.06.78-1.52 1.25-.46.46-.88.97-1.24 1.52a10.075 10.075 0 0 0-1.49 3.591c-.13.649-.19 1.3-.19 1.96a9.903 9.903 0 0 0 .76 3.819c.25.601.56 1.19.92 1.73.37.55.78 1.06 1.24 1.52a10.077 10.077 0 0 0 7.07 2.931 10.098 10.098 0 0 0 5.56-1.69c.54-.36 1.05-.78 1.52-1.24.46-.46.87-.97 1.24-1.52a10.098 10.098 0 0 0 1.49-3.6c.13-.649.19-1.3.19-1.949 0-.66-.06-1.311-.19-1.96z" style="" fill="currentColor"></path></svg>