<svg xmlns="http://www.w3.org/2000/svg" viewBox="0 0 512 512" style="max-width:100%" height="100%" stroke="#8c7569">
  <path d="M463.663 20.23H48.337C21.683 20.23 0 41.914 0 68.567v275.764c0 26.659 21.683 48.348 48.336 48.348h136.992c-1.233 26.663-6.004 52.508-14.226 77.07h-33.468c-6.08 0-11.011 4.93-11.011 11.011 0 6.081 4.931 11.011 11.011 11.011h236.731c6.08 0 11.011-4.93 11.011-11.011 0-6.081-4.931-11.011-11.011-11.011h-33.468c-8.222-24.564-12.993-50.409-14.226-77.07h136.991c26.654 0 48.337-21.689 48.337-48.348V68.567C512 41.914 490.317 20.23 463.663 20.23zM22.021 68.567c0-14.51 11.806-26.316 26.315-26.316h415.326c14.511 0 26.316 11.805 26.316 26.316V320.03H22.021V68.567zM194.243 469.75c7.593-24.703 11.997-50.527 13.14-77.07h97.234c1.144 26.54 5.548 52.364 13.14 77.07H194.243zM489.98 344.332h-.001c0 14.517-11.806 26.327-26.316 26.327H48.337c-14.51 0-26.315-11.81-26.315-26.327v-2.279H489.98v2.279z" fill="currentColor"></path>
  <path d="M402.818 275.99H165.734c-6.08 0-11.011 4.93-11.011 11.011 0 6.081 4.931 11.011 11.011 11.011h237.085c6.08 0 11.011-4.93 11.011-11.011-.001-6.082-4.931-11.011-11.012-11.011zM110.955 275.99h-1.773c-6.08 0-11.011 4.93-11.011 11.011 0 6.081 4.931 11.011 11.011 11.011h1.772c6.08 0 11.011-4.93 11.011-11.011 0-6.082-4.929-11.011-11.01-11.011zM320.966 111.318l64.908 55.493-64.908 55.493c-4.622 3.952-5.165 10.902-1.214 15.524a10.985 10.985 0 0 0 8.374 3.856c2.531 0 5.075-.869 7.149-2.641l74.698-63.862a11.007 11.007 0 0 0 .001-16.738L335.275 94.58c-4.62-3.952-11.572-3.408-15.524 1.215-3.952 4.621-3.409 11.571 1.215 15.523zM102.028 175.181l74.697 63.862a10.962 10.962 0 0 0 7.149 2.641c3.107 0 6.197-1.308 8.374-3.856 3.952-4.622 3.409-11.572-1.214-15.524l-64.907-55.493 64.907-55.493c4.622-3.952 5.165-10.902 1.214-15.524s-10.902-5.166-15.524-1.215l-74.697 63.862a11.013 11.013 0 0 0 .001 16.74zM224.514 263.536a10.99 10.99 0 0 0 3.411.544c4.639 0 8.954-2.955 10.468-7.605l56.155-172.509c1.883-5.782-1.279-11.996-7.061-13.878-5.784-1.883-11.996 1.279-13.878 7.062l-56.155 172.51c-1.884 5.78 1.278 11.994 7.06 13.876z" fill="currentColor"></path>
</svg>