<svg xmlns="http://www.w3.org/2000/svg" data-name="Layer 1" viewBox="0 0 64 64" x="0px" y="0px" style="max-width:100%" height="100%"><title style="" fill="currentColor">House_rating_outine</title><path d="M54.1523,25.2251a2.9242,2.9242,0,0,0-2.8477,2.9893v9.1509a1,1,0,1,0,2,0V28.2144a.8578.8578,0,1,1,1.6953,0v19.769a2.3266,2.3266,0,0,1-.5986,1.57L48.31,56.1123a2.6407,2.6407,0,0,0-.7012,1.8062v.0483H40.7393v-4.54a2.321,2.321,0,0,1,.5986-1.57L50.4844,42.01a.7432.7432,0,0,1,1.126-.0015,1.08,1.08,0,0,1,.001,1.4307L46.166,49.3022a1,1,0,1,0,1.4648,1.3613l5.4453-5.8628a3.0989,3.0989,0,0,0-.0039-4.1572,2.7473,2.7473,0,0,0-2.0244-.8926h-.002a2.7478,2.7478,0,0,0-2.0264.8975L39.873,50.4961a4.2808,4.2808,0,0,0-1.1338,2.9312v4.54H38V64H50.3477V57.9668h-.7393v-.0483a.6581.6581,0,0,1,.166-.4448l6.0918-6.5591A4.2844,4.2844,0,0,0,57,47.9834V28.2144A2.9242,2.9242,0,0,0,54.1523,25.2251ZM48.3477,62H40V59.9668h8.3477Z" style="" fill="currentColor"></path><path d="M24.7607,53.4272a4.2808,4.2808,0,0,0-1.1338-2.9312L14.48,40.6484a2.7478,2.7478,0,0,0-2.0264-.8975h-.002a2.7449,2.7449,0,0,0-2.0234.8921A3.0978,3.0978,0,0,0,10.4238,44.8l5.4453,5.8633a1,1,0,1,0,1.4648-1.3613l-5.4453-5.8638a1.0785,1.0785,0,0,1,.002-1.4307.7425.7425,0,0,1,1.125.002l9.1465,9.8477a2.321,2.321,0,0,1,.5986,1.57v4.54H15.8916v-.0483a2.6407,2.6407,0,0,0-.7012-1.8062L9.0986,49.5532a2.3266,2.3266,0,0,1-.5986-1.57V28.2144a.9276.9276,0,0,1,.8477-.9893.9276.9276,0,0,1,.8477.9893v9.1509a1,1,0,0,0,2,0V28.2144a2.9242,2.9242,0,0,0-2.8477-2.9893A2.9242,2.9242,0,0,0,6.5,28.2144v19.769a4.2844,4.2844,0,0,0,1.1338,2.9312l6.0918,6.5591a.6581.6581,0,0,1,.166.4448v.0483h-.7393V64H25.5V57.9668h-.7393ZM23.5,62H15.1523V59.9668H23.5Z" style="" fill="currentColor"></path><path d="M32,6a1,1,0,0,0,1-1V1a1,1,0,0,0-2,0V5A1,1,0,0,0,32,6Z" style="" fill="currentColor"></path><path d="M45.4346,11.5649a.9968.9968,0,0,0,.707-.293l2.8291-2.8286a1,1,0,0,0-1.4141-1.4141L44.7275,9.8579a1,1,0,0,0,.707,1.707Z" style="" fill="currentColor"></path><path d="M17.8584,11.2715a1,1,0,1,0,1.4141-1.4141L16.4443,7.0293A1,1,0,1,0,15.03,8.4434Z" style="" fill="currentColor"></path><path d="M23.8037,6.8257A1,1,0,0,0,25.6514,6.06L24.1221,2.3677a1,1,0,0,0-1.8477.7656Z" style="" fill="currentColor"></path><path d="M38.89,7.3667a.9984.9984,0,0,0,1.3066-.541l1.5293-3.6919a1,1,0,0,0-1.8477-.7656L38.3486,6.06A1.0008,1.0008,0,0,0,38.89,7.3667Z" style="" fill="currentColor"></path><path d="M41.2705,41.2681a.9995.9995,0,0,0,.9854-1.1689l-1.6816-9.8047,7.124-6.9434a1,1,0,0,0-.5547-1.7061L37.3,20.2144l-4.4033-8.92a1.0409,1.0409,0,0,0-1.793,0L26.7,20.2144,16.8564,21.645a1,1,0,0,0-.5547,1.7061l7.124,6.9434-1.6816,9.8047a1,1,0,0,0,1.45,1.0542L32,36.5244l8.8057,4.6289A.9979.9979,0,0,0,41.2705,41.2681Zm-8.8057-6.7588a.9989.9989,0,0,0-.93,0L24.0576,38.44l1.4277-8.3257a1.0012,1.0012,0,0,0-.2871-.8853l-6.05-5.896,8.3594-1.2148a.9988.9988,0,0,0,.7529-.5474L32,13.9956l3.7393,7.5752a.9988.9988,0,0,0,.7529.5474l8.3594,1.2148-6.05,5.896a1.0012,1.0012,0,0,0-.2871.8853L39.9424,38.44Z" style="" fill="currentColor"></path></svg>