<svg xmlns="http://www.w3.org/2000/svg" xmlns:xlink="http://www.w3.org/1999/xlink" version="1.1" x="0px" y="0px" viewBox="0 0 100 100" enable-background="new 0 0 100 100" xml:space="preserve" style="max-width:100%" height="100%"><g style="" fill="currentColor"><g style="" fill="currentColor"><rect x="75.645" y="50.364" transform="matrix(-0.7072 -0.7071 0.7071 -0.7072 101.3561 144.7075)" fill-rule="evenodd" clip-rule="evenodd" width="10" height="2" style="" fill="currentColor"></rect></g><g style="" fill="currentColor"><path fill-rule="evenodd" clip-rule="evenodd" d="M62.496,66.626c-0.777,0.778-0.777,2.051,0,2.829l0.059,0.059    c0.777,0.777,2.051,0.777,2.828,0l2.652-2.652l11.137-11.137l1.414-1.414l-1.414-1.414l-0.059-0.059l-1.414-1.414l-1.414,1.414    L62.496,66.626z" style="" fill="currentColor"></path></g><g style="" fill="currentColor"><path fill-rule="evenodd" clip-rule="evenodd" d="M81.941,55.665L81.941,55.665l-0.707-0.707l-0.707,0.707L68.683,67.51    l-3.358,3.358c-0.277,0.277-0.348,0.679-0.229,1.028l-3.737,1.106l-2.381-2.381l1.1-3.715c0.357,0.136,0.778,0.063,1.064-0.223    l3.359-3.358l0,0l12.551-12.551l-0.707-0.707l-0.029-0.03c-0.001-0.001-0.002-0.001-0.003-0.002l-0.705-0.705L63.056,61.882l0,0    l-3.358,3.359c-0.031,0.031-0.044,0.072-0.07,0.106c-0.099,0.062-0.179,0.155-0.214,0.275l-2.657,8.979    c-0.052,0.176-0.004,0.365,0.126,0.495s0.319,0.179,0.495,0.126l8.979-2.657c0.02-0.006,0.031-0.021,0.049-0.029    c0.132-0.048,0.257-0.119,0.362-0.225l3.359-3.359l11.844-11.844l0.707-0.707l-0.722-0.723L81.941,55.665z" style="" fill="currentColor"></path></g><g style="" fill="currentColor"><path fill-rule="evenodd" clip-rule="evenodd" d="M88.608,47.644l-4.243-4.242c-0.777-0.778-2.051-0.778-2.828,0l-1.696,1.695    c-0.001,0.001-0.002,0.002-0.003,0.003l-1.411,1.411l1.414,1.414l4.243,4.243l1.414,1.414l1.414-1.414l0.848-0.848l0.849-0.849    C89.386,49.694,89.386,48.421,88.608,47.644z" style="" fill="currentColor"></path></g></g><g style="" fill="currentColor"><g style="" fill="currentColor"><path d="M80.5,39.65V24.088c0.009-0.063,0.02-0.127,0.02-0.193c0-0.488-0.233-0.923-0.595-1.196l-8.879-8.878l-4.484-4.485    c-0.096-0.096-0.205-0.171-0.321-0.236c-0.025-0.016-0.052-0.029-0.079-0.043c-0.204-0.101-0.428-0.16-0.66-0.16H23    c-1.93,0-3.5,1.57-3.5,3.5v76.096c0,1.93,1.57,3.5,3.5,3.5h54c1.93,0,3.5-1.57,3.5-3.5v-25.12l-3,3v22.12    c0,0.271-0.229,0.5-0.5,0.5H23c-0.271,0-0.5-0.229-0.5-0.5V12.396c0-0.271,0.229-0.5,0.5-0.5h41.001v9.999    c0,1.93,1.57,3.5,3.5,3.5H77.5V42.65L80.5,39.65z M67.001,21.895v-7.877l2.39,2.389l5.986,5.988h-7.876    C67.229,22.395,67.001,22.166,67.001,21.895z" style="" fill="currentColor"></path></g><g style="" fill="currentColor"><path d="M29.833,38.918h22.501c0.828,0,1.5-0.672,1.5-1.5s-0.672-1.5-1.5-1.5H29.833c-0.829,0-1.5,0.672-1.5,1.5    S29.004,38.918,29.833,38.918z" style="" fill="currentColor"></path></g><g style="" fill="currentColor"><path d="M53.834,56.918c0-0.828-0.672-1.5-1.5-1.5H29.833c-0.829,0-1.5,0.672-1.5,1.5s0.671,1.5,1.5,1.5h22.501    C53.162,58.418,53.834,57.746,53.834,56.918z" style="" fill="currentColor"></path></g><g style="" fill="currentColor"><path d="M29.833,73.244c-0.829,0-1.5,0.672-1.5,1.5s0.671,1.5,1.5,1.5h11.25c0.829,0,1.5-0.672,1.5-1.5s-0.671-1.5-1.5-1.5H29.833    z" style="" fill="currentColor"></path></g><g style="" fill="currentColor"><path d="M29.833,25.395h11.25c0.829,0,1.5-0.672,1.5-1.5s-0.671-1.5-1.5-1.5h-11.25c-0.829,0-1.5,0.672-1.5,1.5    S29.004,25.395,29.833,25.395z" style="" fill="currentColor"></path></g><g style="" fill="currentColor"><path d="M29.833,19.5h11.25c0.829,0,1.5-0.672,1.5-1.5s-0.671-1.5-1.5-1.5h-11.25c-0.829,0-1.5,0.672-1.5,1.5    S29.004,19.5,29.833,19.5z" style="" fill="currentColor"></path></g><g style="" fill="currentColor"><path d="M65.033,42.418h-35.2c-0.829,0-1.5,0.672-1.5,1.5s0.671,1.5,1.5,1.5h35.2c0.828,0,1.5-0.672,1.5-1.5    S65.861,42.418,65.033,42.418z" style="" fill="currentColor"></path></g><g style="" fill="currentColor"><path d="M66.533,50.418c0-0.828-0.672-1.5-1.5-1.5h-35.2c-0.829,0-1.5,0.672-1.5,1.5s0.671,1.5,1.5,1.5h35.2    C65.861,51.918,66.533,51.246,66.533,50.418z" style="" fill="currentColor"></path></g></g></svg>